<?xml version="1.0" encoding="UTF-8"?>
<svg width="24px" height="24px" viewBox="0 0 24 24" version="1.1" xmlns="http://www.w3.org/2000/svg" xmlns:xlink="http://www.w3.org/1999/xlink">
    <!-- Generator: Sketch 49.3 (51167) - http://www.bohemiancoding.com/sketch -->
    <title>help-icon-color-1</title>
    <desc>Created with Sketch.</desc>
    <defs>
        <path d="M20,12 C20,7.581722 16.418278,4 12,4 C7.581722,4 4,7.581722 4,12 C4,14.5681541 5.21727414,16.9316727 7.24246963,18.4323464 C7.68620659,18.7611563 7.77937337,19.3874292 7.45056346,19.8311662 C7.12175355,20.2749032 6.49548057,20.3680699 6.05174361,20.03926 C3.52278748,18.1652988 2,15.2085806 2,12 C2,6.4771525 6.4771525,2 12,2 C17.5228475,2 22,6.4771525 22,12 C22,17.5228475 17.5228475,22 12,22 C11.4477153,22 11,21.5522847 11,21 L11,19 C11,18.4477153 11.4477153,18 12,18 C12.5522847,18 13,18.4477153 13,19 L13,19.9381062 C16.9463116,19.4460082 20,16.0796177 20,12 Z M10,10 C10,10.5522847 9.55228475,11 9,11 C8.44771525,11 8,10.5522847 8,10 C8,7.790861 9.790861,6 12,6 C14.209139,6 16,7.790861 16,10 C16,11.0439762 15.5970048,12.0271602 14.8893351,12.7661847 C14.5801097,13.0891111 14.1590815,13.3461697 13.6277955,13.5592198 C13.2485559,13.711298 12.9999806,14.0787958 12.9999806,14.4873723 L13,15.4999808 C13.0000106,16.0522656 12.5523039,16.4999894 12.0000192,16.5 C11.4477344,16.5000106 11.0000106,16.0523039 11,15.5000192 L10.9999806,14.4873915 C10.9999806,13.2616203 11.7456969,12.1591412 12.8834009,11.7029125 C13.1715553,11.5873602 13.3581767,11.4734186 13.4448099,11.3829469 C13.7994704,11.0125724 14,10.523342 14,10 C14,8.8954305 13.1045695,8 12,8 C10.8954305,8 10,8.8954305 10,10 Z" id="path-1"></path>
    </defs>
    <g id="help-icon" stroke="none" stroke-width="1" fill="none" fill-rule="evenodd">
        <mask id="mask-2" fill="white">
            <use xlink:href="#path-1"></use>
        </mask>
        <use id="Mask" fill="#2583FD" fill-rule="nonzero" xlink:href="#path-1"></use>
    </g>
</svg>