<?xml version="1.0" encoding="UTF-8"?>
<svg width="24px" height="24px" viewBox="0 0 24 24" version="1.1" xmlns="http://www.w3.org/2000/svg" xmlns:xlink="http://www.w3.org/1999/xlink">
    <!-- Generator: Sketch 49.3 (51167) - http://www.bohemiancoding.com/sketch -->
    <title>instagram-icon</title>
    <desc>Created with Sketch.</desc>
    <defs>
        <path d="M12,19 C12.5522847,19 13,19.4477153 13,20 C13,20.5522847 12.5522847,21 12,21 L8,21 C5.23857625,21 3,18.7614237 3,16 L3,8 C3,5.23857625 5.23857625,3 8,3 L16,3 C18.7614237,3 21,5.23857625 21,8 L21,16 C21,18.7614237 18.7614237,21 16,21 C15.4477153,21 15,20.5522847 15,20 C15,19.4477153 15.4477153,19 16,19 C17.6568542,19 19,17.6568542 19,16 L19,8 C19,6.34314575 17.6568542,5 16,5 L8,5 C6.34314575,5 5,6.34314575 5,8 L5,16 C5,17.6568542 6.34314575,19 8,19 L12,19 Z M12,16.5 C9.51471863,16.5 7.5,14.4852814 7.5,12 C7.5,9.51471863 9.51471863,7.5 12,7.5 C14.4852814,7.5 16.5,9.51471863 16.5,12 C16.5,14.4852814 14.4852814,16.5 12,16.5 Z M12,14.5 C13.3807119,14.5 14.5,13.3807119 14.5,12 C14.5,10.6192881 13.3807119,9.5 12,9.5 C10.6192881,9.5 9.5,10.6192881 9.5,12 C9.5,13.3807119 10.6192881,14.5 12,14.5 Z M16.5,8.5 C15.9477153,8.5 15.5,8.05228475 15.5,7.5 C15.5,6.94771525 15.9477153,6.5 16.5,6.5 C17.0522847,6.5 17.5,6.94771525 17.5,7.5 C17.5,8.05228475 17.0522847,8.5 16.5,8.5 Z" id="path-1"></path>
    </defs>
    <g id="instagram-icon" stroke="none" stroke-width="1" fill="none" fill-rule="evenodd">
        <mask id="mask-2" fill="white">
            <use xlink:href="#path-1"></use>
        </mask>
        <use id="icon" fill="#000000" fill-rule="nonzero" xlink:href="#path-1"></use>
    </g>
</svg>