<?xml version="1.0" encoding="UTF-8"?>
<svg width="135px" height="40px" viewBox="0 0 135 40" version="1.1" xmlns="http://www.w3.org/2000/svg" xmlns:xlink="http://www.w3.org/1999/xlink">
    <!-- Generator: Sketch 49.3 (51167) - http://www.bohemiancoding.com/sketch -->
    <title>Logotypes/logo-appstorm-white</title>
    <desc>Created with Sketch.</desc>
    <defs></defs>
    <g id="Logotypes/logo-appstorm" stroke="none" stroke-width="1" fill="none" fill-rule="evenodd">
        <path d="M13.2203119,18.4469839 C13.2203119,15.3106133 12.0595235,12.0474288 7.27335861,12.0474288 C5.30126316,12.0474288 3.42572295,12.5968549 2.13042515,13.4366183 L2.77898495,15.3106133 C3.87692139,14.5997876 5.39781841,14.147444 6.85252346,14.147444 C10.0534211,14.147444 10.4080643,16.4737827 10.4080643,17.7671032 L10.4080643,18.089599 C4.36243034,18.0574405 1,20.1231734 1,23.9069626 C1,26.1686808 2.61563047,28.3955099 5.78616484,28.3955099 C8.0142228,28.3955099 9.6984743,27.2957476 10.5689897,26.0719017 L10.6676704,26.0719017 L10.8932696,28.0405522 L13.479918,28.0405522 C13.2862002,26.9738585 13.2203119,25.649593 13.2203119,24.2928654 L13.2203119,18.4469839 Z M10.4745599,22.7720079 C10.4745599,23.065379 10.4080643,23.3875714 10.3112054,23.6769985 C9.85788156,25.0015675 8.56470919,26.2973151 6.52824356,26.2973151 C5.07353851,26.2973151 3.84503994,25.4238762 3.84503994,23.5802194 C3.84503994,20.5448754 7.3683957,19.9930222 10.4745599,20.0609799 L10.4745599,22.7720079 Z M25.0052143,12.0477322 C28.999201,12.0477322 32.0036482,15.2462962 32.0033445,19.9933256 C32.0033445,25.617131 28.3834335,28.3949032 24.4908602,28.3949032 C22.3074363,28.3949032 20.396371,27.492643 19.4037952,25.9390201 L19.3376032,25.9390201 L19.3376032,32 L16.6704921,32 L16.6704921,17.5092279 L16.6865847,12.4020832 L18.9273952,12.4020832 L19.0637264,15.0852 L19.1320438,15.0852 C20.3620605,13.1772261 22.3074363,12.0477322 25.0052143,12.0477322 Z M23.9801497,26.1686808 C27.1543277,26.1686808 28.999201,23.7097639 28.9995046,20.1225666 C28.9995046,16.9898367 27.2581701,14.3100571 24.082474,14.3100571 C22.0329522,14.3100571 20.1218869,15.6992466 19.5416445,17.8317237 C19.4393202,18.1860747 19.3372996,18.6050463 19.3372996,18.9954998 L19.3372996,21.6764929 C19.3372996,22.0954644 19.4034915,22.4816706 19.4715053,22.8396622 C20.0195626,24.8086161 21.8289109,26.1686808 23.9801497,26.1686808 Z M69.8438939,18.879911 C72.561408,19.8971533 73.9511357,21.2323406 73.9520466,23.5213632 C73.9520466,26.2238964 71.8190257,28.1312636 68.0995231,28.1312636 C66.4101098,28.1312636 64.8491333,27.7274612 63.752715,27.1082571 L62.788377,30.1690853 C62.5858539,30.8771806 61.9591557,31.476058 61.2349913,31.476058 L44.2430889,31.476058 C43.5216572,31.476058 42.7297827,30.9245083 42.9356458,30.1690853 L43.5966546,28.064216 C42.8749192,28.2823482 42.1173552,28.393993 41.3470387,28.393993 C39.1614893,28.393993 37.2504241,27.4914294 36.2599737,25.9378065 L36.1934781,25.9378065 L36.1934781,31.9984831 L33.5260633,31.9984831 L33.5260633,17.5080144 L33.5421559,12.4008697 L35.7832701,12.4008697 L35.9192976,15.0836831 L35.9873113,15.0836831 C37.2161135,13.1760125 39.1617929,12.0465187 41.8592673,12.0465187 C44.3098882,12.0465187 46.3824861,13.254892 47.6219154,15.2790615 L49.502921,9.30636598 C49.7567581,8.53334682 50.1797187,8 50.9017576,8 L68.0460837,8 C68.7690336,8 69.5423865,8.63498003 69.3556523,9.30636598 L68.4581135,12.1572534 C68.8078986,12.1074986 69.1716507,12.0765536 69.5545318,12.0765536 C71.139799,12.0765536 72.5298302,12.5207059 73.4024711,13.0309956 L72.6907556,15.06457 C72.07681,14.6856449 70.944563,14.1750518 69.4883398,14.1750518 C68.704967,14.1750518 68.0922359,14.3898468 67.6498428,14.7266016 L66.9712234,16.8860798 C67.2481365,17.7489002 68.169055,18.2543358 69.8438939,18.879911 Z M40.8360246,26.1686808 C42.64932,26.1686808 44.0244733,25.3635031 44.874038,24.0104161 L45.8055836,21.0497042 C45.8344288,20.7487485 45.8538613,20.4450624 45.8538613,20.1225666 C45.8538613,16.9898367 44.1131341,14.3100571 40.9386525,14.3100571 C38.8894343,14.3100571 36.978369,15.6992466 36.3960012,17.8317237 C36.2936769,18.1860747 36.1934781,18.6050463 36.1934781,18.9954998 L36.1934781,21.6764929 C36.1934781,22.0954644 36.25967,22.4816706 36.3276838,22.8396622 C36.8742229,24.8086161 38.6847857,26.1686808 40.8360246,26.1686808 Z M52.2362241,28.5563028 L61.9002509,18.0359003 L56.8383874,16.1054761 L59.3567184,10.9240026 L51.7777385,17.8854225 L56.6106628,19.8652981 L52.2362241,28.5563028 Z M68.1626787,26.0643171 C70.2331512,26.0643171 71.2023473,25.0482884 71.2029546,23.7777216 C71.2029546,22.4422309 70.3955948,21.7116853 68.2932409,20.9456439 C67.3905404,20.6310361 66.6417817,20.2581787 66.0396777,19.8398139 L64.4273872,24.9618243 C65.271183,25.4988118 66.7489641,26.0643171 68.1626787,26.0643171 Z M79.7927283,8.33948526 L79.7939429,12.097487 L83.8671777,12.097487 L83.8671777,14.2636396 L79.7939429,14.2636396 L79.7939429,22.6955554 C79.7939429,24.6317439 80.3410893,25.7308995 81.9272674,25.7308995 C82.6708643,25.7308995 83.2204397,25.6344238 83.5769047,25.5376447 L83.7038233,27.671032 C83.1551587,27.8967487 82.2837324,28.0575416 81.1833669,28.0575416 C79.8567949,28.0575416 78.7895254,27.640087 78.1109059,26.8628204 C77.3029388,26.0248774 77.0111477,24.6320473 77.0111477,22.7920311 L77.0111477,14.263943 L74.586032,14.263943 L74.586032,12.0977904 L77.0111477,12.0977904 L77.0111477,8.35040704 L79.7927283,8.33948526 Z M92.2923825,12.0477322 C96.7867561,12.0477322 99.8267284,15.3106133 99.8276393,20.0931385 C99.8276393,25.8747029 95.8166491,28.3952066 92.0336873,28.3952066 C87.7980088,28.3952066 84.532741,25.2955453 84.532741,20.3516206 C84.532741,15.1176619 87.9592379,12.0477322 92.2923825,12.0477322 Z M92.1636421,26.2618193 C94.8766018,26.2618193 96.9158001,23.7097639 96.9161037,20.190221 C96.9161037,17.5416898 95.5916572,14.1808161 92.2264941,14.1808161 C88.8640638,14.1808161 87.409966,17.2804773 87.409966,20.2548415 C87.409966,23.6769985 89.3808469,26.2618193 92.1636421,26.2618193 Z M104.548219,15.4714062 C105.259328,13.3723012 106.971513,12.0477322 108.878024,12.0480356 C109.202304,12.0480356 109.430636,12.0811043 109.687206,12.1451181 L109.687206,14.8258078 C109.396022,14.761794 109.106356,14.7293321 108.717706,14.7293321 C106.712211,14.7293321 105.291209,16.2471558 104.902255,18.3796329 C104.837885,18.7661425 104.773515,19.2212166 104.773515,19.7042019 L104.773515,27.4322698 L101.960053,27.4322698 L101.960053,17.2807807 C101.960053,15.439551 101.927564,13.8571067 101.831313,12.4020832 L104.320798,12.4020832 L104.41705,15.4714062 L104.548219,15.4714062 Z M128.861317,12.0477322 C130.929968,12.0477322 134.000304,13.4041563 134,18.8334935 L134,27.4310563 L131.220241,27.4310563 L131.220241,19.1872377 C131.220241,16.1828387 130.12109,14.3734641 127.826537,14.3734641 C126.209692,14.3734641 124.947186,15.5690954 124.463499,16.9570713 C124.33567,17.3444911 124.2379,17.8626688 124.2379,18.3784194 L124.2379,27.4313597 L121.455712,27.4313597 L121.455712,18.6681499 C121.455712,16.183142 120.35899,14.3737675 118.190748,14.3737675 C116.41237,14.3737675 115.118287,15.7951155 114.667392,17.21525 C114.504341,17.6375588 114.439971,18.1214542 114.439971,18.6044395 L114.439971,27.4319664 L111.659605,27.4319664 L111.659605,16.6360924 C111.659605,15.0187592 111.625598,13.6944936 111.530561,12.4020832 L114.018832,12.4020832 L114.149091,14.9225868 L114.245949,14.9225868 C115.118287,13.4369217 116.572992,12.0477322 119.161158,12.0477322 C121.294786,12.0477322 122.911024,13.3401426 123.58934,15.1816757 L123.656139,15.1816757 C124.139219,14.3103605 124.755594,13.6323001 125.402332,13.1471912 C126.339039,12.4360621 127.374427,12.0477322 128.861317,12.0477322 Z" id="logo" fill="#FFFFFF" fill-rule="nonzero"></path>
    </g>
</svg>