<?xml version="1.0" encoding="UTF-8"?>
<svg width="127px" height="40px" viewBox="0 0 127 40" version="1.1" xmlns="http://www.w3.org/2000/svg" xmlns:xlink="http://www.w3.org/1999/xlink">
    <!-- Generator: Sketch 49.3 (51167) - http://www.bohemiancoding.com/sketch -->
    <title>Logotypes/logo-gizmodo-color</title>
    <desc>Created with Sketch.</desc>
    <defs></defs>
    <g id="Logotypes/logo-gizmodo" stroke="none" stroke-width="1" fill="none" fill-rule="evenodd">
        <path d="M21.4854461,26.8496679 L21.4854461,13.1363951 C21.4854461,12.4245079 21.6469935,11.8901341 21.9708191,11.5336403 C22.2942793,11.1775133 22.7127674,11 23.2259177,11 C23.7547843,11 24.1831406,11.1756795 24.5109867,11.5277721 C24.8388328,11.8798647 25.0029386,12.4160724 25.0029386,13.1363951 L25.0029386,26.8496679 C25.0029386,27.5696239 24.8388328,28.1080321 24.5109867,28.462692 C24.1835061,28.8202861 23.7551498,28.9977994 23.2259177,28.9977994 C22.7208082,28.9977994 22.3041476,28.817352 21.976667,28.4568238 C21.6488209,28.0977627 21.4854461,27.5611883 21.4854461,26.8496679 M117.037777,28.9981662 C112.095964,28.9981662 108.075554,24.963772 108.075554,20.0047679 C108.075554,15.0457639 112.09706,11.0110029 117.037777,11.0110029 C121.979591,11.0110029 126,15.0457639 126,20.0047679 C126,24.963772 121.980687,28.9981662 117.037777,28.9981662 M117.037777,14.6522271 C114.095934,14.6522271 111.702329,17.0537919 111.702329,20.0055014 C111.702329,22.9568442 114.0963,25.3580423 117.037777,25.3580423 C119.978889,25.3580423 122.372495,22.9568442 122.372495,20.0055014 C122.372495,17.0534252 119.978889,14.6522271 117.037777,14.6522271 M76.8037163,28.9981662 C71.8619026,28.9981662 67.8414935,24.963772 67.8414935,20.0047679 C67.8414935,15.0457639 71.8619026,11.0110029 76.8037163,11.0110029 C81.74553,11.0110029 85.7659391,15.0457639 85.7659391,20.0047679 C85.7663046,24.963772 81.7458955,28.9981662 76.8037163,28.9981662 M76.8037163,14.6522271 C73.8626043,14.6522271 71.468999,17.0537919 71.468999,20.0055014 C71.468999,22.9568442 73.8626043,25.3580423 76.8037163,25.3580423 C79.7455593,25.3580423 82.1384336,22.9568442 82.1384336,20.0055014 C82.1384336,17.0534252 79.7455593,14.6522271 76.8037163,14.6522271 M105.204251,19.9988997 L105.204251,19.9966991 C105.204355,18.0864905 104.596635,16.2261503 103.469628,14.6867028 C101.886317,12.5205999 99.3622315,11.0909573 96.5073756,11.006235 C96.4189266,11.0040344 96.3304776,11 96.2405667,11 L91.7406324,11.0055014 C90.9716378,11.0055014 90.4157249,11.181181 90.0717972,11.53254 C89.728235,11.8835323 89.5557229,12.4516484 89.5557229,13.2357879 L89.5557229,26.7631118 C89.5557229,27.5476181 89.728235,28.1150006 90.0717972,28.4667264 C90.4157249,28.8177187 90.9720033,28.9941318 91.7406324,28.9941318 L96.2405667,29 C96.3304776,29 96.4189266,28.9955988 96.5073756,28.9926647 C99.3622315,28.908676 101.886317,27.4790334 103.469628,25.3129304 C104.597141,23.7737443 105.204917,21.9132327 105.204251,20.0029341 L105.204251,19.9988997 M96.8765223,25.3140307 C96.4423181,25.3419047 95.9763161,25.3470394 95.474496,25.3470394 L93.1210947,25.3470394 L93.1210947,14.6514935 L95.474496,14.6514935 C95.9763161,14.6514935 96.4415871,14.656995 96.8765223,14.684869 C98.3967822,14.8694707 99.7647887,15.7004498 100.632681,16.9665023 C101.243559,17.8553001 101.571808,18.9089412 101.574188,19.9886303 L101.574188,20.0095358 C101.572175,21.0892815 101.243892,22.1430292 100.632681,23.0316639 C99.7650351,24.2981001 98.3969543,25.1293914 96.8765223,25.3140307 M62.7655444,11.0803211 C62.1105832,10.8756673 61.4029912,11.1342353 61.0217833,11.7170219 L55.6172571,19.9776275 L50.2141928,11.7170219 C49.8322539,11.1342353 49.1246619,10.8756673 48.4700662,11.0803211 C47.815105,11.2846082 47.3681087,11.9040711 47.3681087,12.6060557 L47.3681087,27.2868495 C47.3681087,28.1674477 48.0640049,28.882269 48.9229105,28.882269 C49.7821815,28.882269 50.4777123,28.1689148 50.4777123,27.2868495 L50.4777123,17.8456335 L54.314279,23.7094421 L54.3219544,23.7215453 L54.3270712,23.7288806 L54.3420564,23.7505196 C54.3654479,23.7860956 54.3906668,23.8198378 54.4177132,23.8543135 L54.4542624,23.8950242 C54.4761919,23.9195974 54.4966594,23.9460043 54.5196854,23.9680101 C54.5405184,23.9903827 54.5624479,24.008354 54.5847429,24.0288928 L54.6318913,24.0725376 C54.6625927,24.0974775 54.6940249,24.1213171 54.7261882,24.1433229 L54.7525036,24.1642284 L54.756524,24.1671625 C54.7908803,24.1899018 54.8259675,24.211174 54.8621511,24.2324463 L54.891756,24.2511512 C54.9188024,24.2661885 54.9465797,24.2768246 54.9754536,24.2903949 C55.1329805,24.3637475 55.2978173,24.4099597 55.463385,24.4271975 L55.46704,24.427931 C55.4999342,24.4308652 55.5328285,24.4315987 55.5653572,24.4337993 L55.6190845,24.4359998 L55.6731773,24.4337993 C55.7060715,24.4315987 55.7389658,24.4308652 55.7718601,24.427931 L55.775515,24.4271975 C55.9447051,24.4090357 56.1097153,24.362806 56.2638119,24.2903949 C56.2915893,24.2768246 56.3193667,24.2661885 56.3467786,24.2511512 L56.3767489,24.2324463 C56.4129326,24.211174 56.4480198,24.1917356 56.482376,24.1671625 L56.4871274,24.1642284 L56.5127118,24.1433229 C56.5448751,24.1205836 56.5763074,24.0974775 56.6070087,24.0725376 L56.6556191,24.0281593 C56.6771831,24.008354 56.6983816,23.9900159 56.7184836,23.9687436 C56.7418751,23.9460043 56.7627081,23.9195974 56.7846377,23.8950242 L56.8219178,23.8543135 C56.8482332,23.8198378 56.8734521,23.7853621 56.8975746,23.7505196 L56.9125598,23.7288806 L56.9169457,23.7215453 L56.924621,23.7094421 L60.7578983,17.8456335 L60.7578983,27.2868495 C60.7578983,28.1674477 61.4537945,28.882269 62.3130656,28.882269 C63.1719712,28.882269 63.8685984,28.1689148 63.8685984,27.2868495 L63.8685984,12.6060557 C63.8682329,11.9040711 63.4205055,11.2846082 62.7655444,11.0803211 M42.0768848,28.6314031 L30.4553442,28.6314031 C29.8435111,28.6314031 29.1644274,28.2481356 28.9126036,27.6506785 C28.6611453,27.0535882 28.609611,26.2408411 29.1505387,25.5949713 L38.6577097,14.525327 L30.8032923,14.525327 C29.9447523,14.525327 29.2484905,13.7789641 29.2484905,12.8583887 C29.2484905,11.9378133 29.9447523,11.3751987 30.8032923,11.3751987 L41.3948773,11.3751987 C42.0063449,11.3751987 42.6393766,11.4727577 43.1920001,12.0808509 C43.6978407,12.636497 43.6751802,13.8354456 43.109399,14.5502669 L33.9231298,25.2982599 L42.0776158,25.2982599 C42.9365214,25.2982599 43.5615123,26.0442561 43.5615123,26.9651983 C43.5611468,27.8857737 42.9357904,28.6314031 42.0768848,28.6314031 M9.89789623,28.9981662 C7.31862107,28.9981662 4.97983948,27.9715962 3.31173521,26.1091732 C1.84245844,24.4679082 1,22.3047394 1,20.174946 C1,13.4910551 6.53683426,11 10.0272803,11 C13.4588822,11 15.9778512,12.6885774 16.0834783,12.7604629 C16.8564933,13.286768 17.0629962,14.3500143 16.5454599,15.1359876 C16.3008165,15.5109548 15.9168239,15.7720981 15.4791072,15.8611862 C15.0413904,15.9502742 14.5863488,15.8598988 14.2154501,15.6102123 C14.1704946,15.5808713 12.3836055,14.4248339 10.0272803,14.4248339 C7.83944679,14.4248339 4.82267803,15.8731815 4.82267803,20.1756795 C4.82267803,22.6234565 6.6366135,25.5095155 9.96295376,25.5095155 C11.8342714,25.5095155 13.1500417,25.0096173 13.9146504,24.5210889 L13.9146504,21.9764864 L11.3229485,21.9764864 C10.3924065,21.9764864 9.63876259,21.2099515 9.63876259,20.2644362 C9.63876259,19.3189209 10.3924065,18.552386 11.3229485,18.552386 L15.5992018,18.552386 C16.5293782,18.552386 17.2833877,19.3189209 17.2833877,20.2644362 L17.2833877,25.3565752 C17.2839573,25.8185978 17.0999083,26.2615614 16.7724302,26.586332 C15.6434263,27.6972574 13.1653923,28.9981662 9.89789623,28.9981662" id="logo" fill="#3CA6FE" fill-rule="nonzero"></path>
    </g>
</svg>