<?xml version="1.0" encoding="UTF-8"?>
<svg width="80px" height="40px" viewBox="0 0 80 40" version="1.1" xmlns="http://www.w3.org/2000/svg" xmlns:xlink="http://www.w3.org/1999/xlink">
    <!-- Generator: Sketch 49.3 (51167) - http://www.bohemiancoding.com/sketch -->
    <title>Logotypes/logo-tnw-dark</title>
    <desc>Created with Sketch.</desc>
    <defs>
        <path d="M47.0836257,8.00064917 C47.1135826,8.00017021 47.1295022,8.00017021 47.1295022,8.00017021 C47.6649089,8.00017021 48.5488689,8.13531915 49.1648689,10.0622979 L52.0468933,19.0789787 L52.0660587,19.2327501 L53.6289867,10.0434043 C53.976,8.0013617 55.2352067,8.00289362 55.7114089,8.00289362 L62.0051088,8.00137996 C62.0541149,8.00000542 62.08102,8 62.08102,8 C62.4663622,8 63.1434489,8 63.6697867,10.0434043 L65.9914222,19.0514043 L69.7589467,8.00085106 L77.97228,8.00085106 L69.1011956,31.8306383 L62.08564,31.8306383 L58.8618943,17.5527211 L55.7310867,31.8306383 L49.9234044,31.8306383 L48.8226467,31.8302979 L45.4004244,23.115559 L45.4004244,31.8302979 L42.0021578,31.8302979 C40.9958533,31.8369362 39.99588,31.4039149 39.3150289,30.5642553 L30.0004244,18.8478298 L30.0004244,31.8308085 L23.15598,31.8308085 L23.15598,14.8093617 L16.6539289,14.8093617 L16.6539289,31.8306383 L9.80948444,31.8306383 L9.80948444,14.8093617 L3.53449778,14.8093617 L1,8.00085106 L21.4452111,8.00085106 C21.4622725,8.00085106 21.4793338,8.00091727 21.4963906,8.00104749 L28.4484467,8.00459574 C29.4220689,8.00459574 30.5022933,8.46757447 31.1742467,9.35029787 L38.55598,18.6348936 L38.55598,10.0434043 C38.55598,8.91540426 39.4755311,8.00017021 40.6093133,8.00017021 L47.1296733,8 C47.114276,8 47.098926,8.00021704 47.0836257,8.00064917 Z" id="path-1"></path>
    </defs>
    <g id="Logotypes/logo-tnw" stroke="none" stroke-width="1" fill="none" fill-rule="evenodd">
        <g id="logo" fill-rule="nonzero">
            <use fill="#2B446B" fill-rule="evenodd" xlink:href="#path-1"></use>
            <use fill="#253F6F" fill-rule="evenodd" xlink:href="#path-1"></use>
        </g>
    </g>
</svg>